<?xml version="1.0" encoding="UTF-8"?>
<svg version="1.1" xmlns="http://www.w3.org/2000/svg" width="1600" height="1600">

<path d="M0 0 C1.24225005 -0.00205263 2.48450011 -0.00410527 3.7643941 -0.0062201 C7.21588689 -0.01090368 10.66732762 -0.01111653 14.11881973 -0.00944251 C17.87270103 -0.00871058 21.62657538 -0.01373633 25.38045371 -0.01801753 C32.82744062 -0.02559399 40.27442036 -0.02779041 47.72141072 -0.02834659 C56.64102096 -0.02926058 65.56062458 -0.03592923 74.48023196 -0.04269341 C96.03955922 -0.05875265 117.59888578 -0.06465674 139.15821795 -0.06944216 C149.35857747 -0.07177832 159.55893643 -0.07538101 169.75929551 -0.07913754 C204.68028387 -0.09197338 239.60127191 -0.10269222 274.52226257 -0.10614014 C276.71438808 -0.10636177 278.9065136 -0.10658355 281.09863911 -0.10680549 C283.29604549 -0.10702613 285.49345187 -0.10724661 287.69085824 -0.10746694 C292.09919635 -0.10790949 296.50753446 -0.1083566 300.91587257 -0.10880661 C302.008884 -0.108916 303.10189543 -0.10902539 304.22802842 -0.1091381 C339.66275838 -0.1127681 375.09746787 -0.12868584 410.53218999 -0.15199697 C448.00079456 -0.17660102 485.46938744 -0.19031326 522.93800032 -0.19150805 C527.05235521 -0.19167951 531.1667101 -0.19189493 535.28106499 -0.19214249 C536.29412575 -0.19219826 537.30718651 -0.19225402 538.35094608 -0.19231148 C554.64439863 -0.19346147 570.93783016 -0.20447911 587.23127561 -0.21902954 C603.61375692 -0.23340631 619.99621132 -0.23662487 636.3786972 -0.22858956 C646.10660942 -0.22413877 655.83443468 -0.22797186 665.56233545 -0.24382807 C672.06813731 -0.25359995 678.57387847 -0.25237879 685.07967982 -0.24239184 C688.78147919 -0.23701569 692.48311198 -0.23623801 696.18489735 -0.24890056 C710.63613413 -0.29527227 724.59924905 -0.25524254 738.72300148 3.13142776 C739.68336386 3.35181678 740.64372624 3.57220579 741.63319051 3.79927325 C768.78412781 10.25659721 791.97821465 24.81156461 811.72300148 44.13142776 C812.38429054 44.74244339 813.04557961 45.35345901 813.72690773 45.98299026 C830.4565014 61.74218987 842.37082656 84.37564741 849.03550148 106.13142776 C849.26584084 106.87674759 849.49618019 107.62206741 849.73349953 108.38997269 C854.2463408 124.01848023 855.15973273 139.16220405 855.10395241 155.33406448 C855.10741541 157.53926639 855.11218426 159.74446656 855.11813414 161.94966316 C855.13058551 167.96692198 855.12450055 173.98403691 855.11517549 180.00129604 C855.10906249 185.83764117 855.11709492 191.6739565 855.12461758 197.51029748 C855.14036406 210.17373216 855.13906594 222.83712127 855.13038084 235.50056022 C855.12281795 246.58290424 855.12087162 257.6652316 855.12444878 268.74757767 C855.12479251 269.8525879 855.12479251 269.8525879 855.12514319 270.97992156 C855.12607728 273.970728 855.12703249 276.96153442 855.12802248 279.95234083 C855.13718827 307.97726932 855.1288969 336.00216888 855.11273179 364.0270929 C855.09849622 388.89587106 855.09977015 413.76460313 855.11411476 438.63338089 C855.13019761 466.60883478 855.13653809 494.58426312 855.12727797 522.55972099 C855.1263159 525.54490661 855.12537737 528.53009223 855.12444878 531.51527786 C855.12409293 532.61772635 855.12409293 532.61772635 855.12372989 533.74244653 C855.12032529 544.8146392 855.12429368 555.88681334 855.13188744 566.95900345 C855.1404838 579.55545436 855.1382812 592.1518528 855.1220452 604.74829721 C855.11418072 611.17064784 855.11103982 617.59290512 855.12099266 624.01525497 C855.12997777 629.90234347 855.12494403 635.78925269 855.10906 641.67632508 C855.10572832 643.79790708 855.1073696 645.91950443 855.11468737 648.04107642 C855.16489976 663.81756521 853.78784009 678.71534222 849.16050148 693.88142776 C848.91074562 694.70086868 848.66098976 695.5203096 848.40366554 696.36458206 C841.52240643 717.84103246 829.83261278 736.55073091 814.72300148 753.13142776 C813.87222023 754.06599808 813.02143898 755.00056839 812.14487648 755.96345901 C792.66330985 776.34911032 766.17065782 790.83934211 738.72300148 797.13142776 C737.67898611 797.38230998 736.63497074 797.6331922 735.55931854 797.8916769 C721.97837994 800.73257738 708.48438256 800.4859518 694.66551089 800.35894096 C691.0349252 800.32915949 687.40427662 800.31766293 683.77359962 800.30437088 C677.4981881 800.27956493 671.22288929 800.24528274 664.94755363 800.20590019 C655.0107456 800.14490846 645.07400107 800.12150325 635.13703346 800.10474014 C633.43836021 800.10168448 631.739687 800.09860443 630.04101384 800.09550029 C627.4678528 800.09081514 624.89469176 800.08614153 622.32153056 800.08154595 C612.65114354 800.06408293 602.98077115 800.04213939 593.31040382 800.01594925 C592.42781682 800.01357101 591.54522981 800.01119278 590.63589774 800.00874247 C576.33268352 799.96888863 562.02993397 799.88832422 547.72697856 799.79550055 C532.99431178 799.70113064 518.26214194 799.66074029 503.52917373 799.66716689 C494.46711041 799.66924484 485.40732686 799.62872421 476.34577273 799.53175315 C470.12914357 799.46905963 463.91373824 799.45836255 457.69686593 799.48711786 C454.12034933 799.50210129 450.54769091 799.49532265 446.97173882 799.42555046 C429.14188335 799.09595759 417.75519567 801.06078228 404.49783301 813.49138296 C402.10790884 815.69980818 399.56842389 817.58826779 396.94175148 819.50642776 C395.36788833 820.71352804 393.79494804 821.92183267 392.22300148 823.13142776 C384.83803352 828.78683074 377.39101893 834.34615746 369.88706398 839.84236526 C363.94628715 844.20419809 358.07546888 848.65197325 352.22300148 853.13142776 C344.83658356 858.78496171 337.39105682 864.3461297 329.88706398 869.84236526 C323.94628715 874.20419809 318.07546888 878.65197325 312.22300148 883.13142776 C304.83658356 888.78496171 297.39105682 894.3461297 289.88706398 899.84236526 C283.94628715 904.20419809 278.07546888 908.65197325 272.22300148 913.13142776 C264.83658356 918.78496171 257.39105682 924.3461297 249.88706398 929.84236526 C243.94628715 934.20419809 238.07546888 938.65197325 232.22300148 943.13142776 C224.83740574 948.78433242 217.39333144 954.34576615 209.88926125 959.840168 C203.92341494 964.21925415 198.03419384 968.69221233 192.16050148 973.19392776 C183.46489214 979.85518055 174.64269505 986.31621171 165.72446632 992.67537308 C162.8971543 994.73222706 160.13631754 996.87404684 157.38047218 999.02547073 C155.72300148 1000.13142776 155.72300148 1000.13142776 153.72300148 1000.13142776 C153.72300148 934.13142776 153.72300148 868.13142776 153.72300148 800.13142776 C100.21811258 800.32888173 100.21811258 800.32888173 46.71348 800.58186722 C36.28928566 800.60445023 36.28928566 800.60445023 31.38619423 800.60864639 C28.01212043 800.61324451 24.6384529 800.63173484 21.26449013 800.65930557 C-17.78680709 800.96408665 -54.85071658 795.38202197 -86.27699852 770.13142776 C-87.16258446 769.44693558 -88.04817039 768.76244339 -88.96059227 768.05720901 C-119.49066993 743.93628241 -140.32830101 708.16801545 -145.06597456 669.36584299 C-145.42825499 665.52985716 -145.41662645 661.70519716 -145.40842628 657.85485554 C-145.41047892 656.94912638 -145.41253155 656.04339721 -145.41464639 655.11022171 C-145.42029797 652.07716126 -145.41886141 649.04414648 -145.41744041 646.0110817 C-145.42002511 643.81364911 -145.42303856 641.61621698 -145.42644382 639.41878551 C-145.43450487 633.38123798 -145.43630289 627.34370235 -145.43704128 621.30615008 C-145.43870317 615.46285867 -145.44502233 609.61957342 -145.45111969 603.77628522 C-145.46716202 588.1250759 -145.4730811 572.47386756 -145.47786844 556.82265149 C-145.48020631 549.41449404 -145.48380918 542.00633737 -145.48756382 534.59818052 C-145.50039817 509.22556158 -145.51111713 483.85294305 -145.51456642 458.48032093 C-145.51478805 456.88825337 -145.51500984 455.29618581 -145.51523177 453.70411825 C-145.51545241 452.1082651 -145.51567289 450.51241195 -145.51589322 448.9165588 C-145.51633577 445.71515119 -145.51678288 442.51374358 -145.51723289 439.31233597 C-145.51734229 438.51857596 -145.51745168 437.72481596 -145.51756438 436.90700262 C-145.52119362 411.17931404 -145.53710922 385.45165365 -145.56042326 359.72397586 C-145.58504283 332.50570487 -145.59874026 305.28745 -145.59993434 278.06916755 C-145.60010579 275.07878649 -145.60032121 272.08840543 -145.60056877 269.09802437 C-145.60062454 268.36174021 -145.60068031 267.62545604 -145.60073777 266.86686024 C-145.6018864 255.03944761 -145.61289242 243.21206401 -145.62745583 231.38466117 C-145.64185253 219.48648957 -145.64503995 207.58835502 -145.63701585 195.69017709 C-145.63311487 189.24965656 -145.6340121 182.80923332 -145.6480732 176.36872482 C-145.66084495 170.4646318 -145.65958577 164.56070886 -145.64748248 158.65661597 C-145.64553116 156.52870505 -145.64857759 154.40078195 -145.65732685 152.27288813 C-145.81906164 110.25354287 -130.44867846 73.30327958 -101.27699852 43.13142776 C-100.66340477 42.46627151 -100.04981102 41.80111526 -99.41762352 41.11580276 C-74.6576714 14.8849624 -35.57322322 -0.05452963 0 0 Z M-32.27699852 116.13142776 C-45.85642893 131.9825101 -45.57932409 150.93803549 -45.53096581 170.70271683 C-45.53327355 172.7672232 -45.53645216 174.83172875 -45.54042029 176.8962326 C-45.54873384 182.53838259 -45.5446587 188.18046451 -45.53844786 193.82261467 C-45.53391026 199.91949412 -45.54091361 206.01636213 -45.5464077 212.11323929 C-45.55477671 223.35610241 -45.55406615 234.59894387 -45.54858476 245.84180653 C-45.54354532 256.22973109 -45.54224413 266.61764775 -45.54463005 277.00557327 C-45.54478282 277.69575256 -45.54493559 278.38593185 -45.54509299 279.09702566 C-45.54571571 281.89898355 -45.54635252 284.70094143 -45.54701252 287.5028993 C-45.55312476 313.76492101 -45.54759274 340.026929 -45.53681872 366.2889486 C-45.52732816 389.59973025 -45.52817744 412.91049005 -45.53774071 436.22127151 C-45.54845971 462.43654973 -45.55269121 488.65181584 -45.54651618 514.86709595 C-45.54587479 517.66382471 -45.5452491 520.46055348 -45.54463005 523.25728226 C-45.5444719 523.94586257 -45.54431374 524.63444288 -45.54415079 525.34388927 C-45.54187987 535.72298258 -45.54452889 546.10206711 -45.54958916 556.48115921 C-45.55531677 568.28760991 -45.55366684 580.09403975 -45.54302767 591.90048885 C-45.53778039 597.92142767 -45.53569816 603.94232219 -45.54232597 609.96326065 C-45.54830702 615.48019308 -45.54497481 620.99704037 -45.53437087 626.51396513 C-45.53214597 628.50436046 -45.53325255 630.49476306 -45.53812245 632.48515368 C-45.58226666 652.03472614 -44.99263598 669.80744194 -31.27699852 685.13142776 C-13.61165134 701.04483969 5.76767217 700.43047279 28.23984718 700.35847855 C30.71463962 700.35791371 33.18943239 700.35823241 35.66422462 700.35936356 C40.97006507 700.35981715 46.27584437 700.35419071 51.58166885 700.34288788 C59.25276518 700.32655712 66.9238378 700.32141717 74.59494963 700.3189119 C87.04414128 700.31454661 99.49330655 700.30126933 111.9424839 700.28230667 C124.02776903 700.26391756 136.11304696 700.24977593 148.19834328 700.24129105 C148.94466376 700.2407656 149.69098425 700.24024015 150.4599205 700.23969878 C154.2044041 700.2370885 157.94888774 700.23456113 161.69337142 700.23207498 C192.70327148 700.21137883 223.71312245 700.17452881 254.72300148 700.13142776 C254.72300148 732.47142776 254.72300148 764.81142776 254.72300148 798.13142776 C257.66922223 796.65831739 259.93478681 795.35607687 262.53159523 793.43611526 C263.63567726 792.6220723 263.63567726 792.6220723 264.76206398 791.79158401 C265.55354836 791.20248245 266.34503273 790.61338089 267.16050148 790.00642776 C267.99452492 789.38896683 268.82854836 788.77150589 269.68784523 788.13533401 C276.80181394 782.8527888 283.84642286 777.48084608 290.88291359 772.09578323 C297.38624174 767.12655817 303.95627403 762.2565559 310.55893898 757.42049026 C316.49971581 753.05865744 322.37053408 748.61088228 328.22300148 744.13142776 C335.60068292 738.48458068 343.03672785 732.92903003 350.53257179 727.44026566 C357.62663771 722.23265066 364.62585076 716.9042139 371.60776711 711.54744339 C372.8481675 710.59708206 372.8481675 710.59708206 374.11362648 709.62752151 C375.19692238 708.79498856 375.19692238 708.79498856 376.30210304 707.94563675 C377.50044777 707.0476033 377.50044777 707.0476033 378.72300148 706.13142776 C380.13121949 704.85716069 380.13121949 704.85716069 381.56788635 703.55715084 C386.78855218 699.87326623 392.45751957 700.44458101 398.62574196 700.50564957 C399.92928733 700.49870502 401.23283271 700.49176048 402.57587945 700.48460549 C406.1837007 700.46601852 409.79084778 700.4783905 413.39864993 700.49587476 C417.29387346 700.50927035 421.18899461 700.49375923 425.08420753 700.48170853 C431.8323547 700.46469086 438.58030549 700.46567934 445.32845879 700.47871208 C455.09923574 700.49737954 464.8698097 700.48655708 474.64057927 700.46823552 C490.51230485 700.43908812 506.38396754 700.43073191 522.25571632 700.43684769 C537.63983821 700.44270426 553.02393893 700.44379025 568.40806007 700.43489456 C569.35470935 700.43435199 570.30135863 700.43380942 571.27669425 700.4332504 C581.62159009 700.42707815 591.96648061 700.41833229 602.31137085 700.40589809 C603.22189106 700.40480561 604.13241128 700.40371312 605.07052302 700.40258753 C608.71165139 700.39816728 612.35277964 700.393693 615.9939075 700.38886192 C626.63466065 700.37476976 637.27534275 700.36869306 647.91610293 700.3773978 C654.5968799 700.38259715 661.27763336 700.38119119 667.95840915 700.37469474 C671.80810159 700.37126137 675.65772068 700.37114752 679.50740623 700.37992287 C683.69110817 700.38943474 687.87465266 700.38347133 692.05835915 700.37625504 C693.26082082 700.38160037 694.4632825 700.3869457 695.70218241 700.39245301 C713.5878515 700.32347635 727.06621162 697.04900271 740.72300148 685.13142776 C755.37353911 669.76477425 754.87371256 649.83370011 754.85671425 630.04115677 C754.85858372 627.98010331 754.86088497 625.9190502 754.86357957 623.85799766 C754.86968706 618.2068288 754.86956521 612.55567475 754.8683852 606.90450335 C754.86818093 600.80482919 754.87370245 594.70515977 754.87844276 588.60548782 C754.88674399 576.65999525 754.88951033 564.71450744 754.89005514 552.76901272 C754.89051513 543.05827152 754.89257579 533.34753191 754.89575577 523.63679123 C754.89665334 520.8390108 754.89754316 518.04123036 754.89843065 515.24344993 C754.89865169 514.54786479 754.89887274 513.85227966 754.89910049 513.13561619 C754.90525245 493.57700101 754.90920128 474.01838639 754.90875721 454.4597702 C754.90874163 453.72275329 754.90872605 452.98573638 754.90871 452.22638562 C754.9086269 448.49109072 754.90852786 444.75579583 754.90842529 441.02050093 C754.90840535 440.27869126 754.9083854 439.53688158 754.90836485 438.77259283 C754.90832442 437.27247383 754.90828262 435.77235483 754.90823946 434.27223582 C754.90762677 410.93525451 754.91513305 387.59828773 754.92881203 364.26131058 C754.94418303 338.02701911 754.95277765 311.79273718 754.9518488 285.55844092 C754.95177418 282.75940307 754.95172547 279.96036522 754.95169449 277.16132736 C754.95168283 276.47216105 754.95167118 275.78299473 754.95165917 275.07294459 C754.95162844 263.9982217 754.95800534 252.92351147 754.96662675 241.84879234 C754.97511649 230.71266395 754.97591172 219.57655031 754.96951743 208.44041947 C754.96625355 202.41140559 754.96619088 196.38243741 754.97487068 190.35342789 C754.98274223 184.82893714 754.98129749 179.30452829 754.97258655 173.78003952 C754.97105302 171.78683164 754.97286214 169.79361762 754.97844663 167.80041698 C755.0301498 148.02935389 754.26402451 130.78091459 740.72300148 115.13142776 C723.61524415 98.19647606 700.98889403 99.82871881 678.64064884 99.87449266 C675.05727366 99.87960135 671.47391568 99.87303235 667.89054298 99.86800599 C661.62026834 99.86080554 655.35002817 99.8609876 649.07975197 99.86610031 C639.75544396 99.87368249 630.43116489 99.86978886 621.10685706 99.8636837 C604.45118417 99.85316381 587.79552663 99.85406038 571.13985229 99.85984152 C556.56405141 99.86487581 541.98825617 99.86618455 527.41245461 99.86379623 C526.44500596 99.86364346 525.47755732 99.86349069 524.48079205 99.86333329 C520.5534447 99.8627106 516.62609736 99.8620738 512.69875002 99.86141377 C475.86926179 99.85529797 439.03978335 99.86083921 402.21029663 99.87160756 C369.50098468 99.88109852 336.7916883 99.88024926 304.08237648 99.87068558 C267.31955667 99.8599726 230.55674549 99.85573172 193.79392433 99.8619101 C189.87379901 99.86255152 185.95367368 99.86317721 182.03354836 99.86379623 C181.06833795 99.86395439 180.10312754 99.86411254 179.10866833 99.86427549 C164.54326138 99.8665489 149.97786068 99.86389274 135.41245461 99.85883713 C118.84829047 99.85311636 102.28414408 99.8545531 85.71998215 99.86539862 C76.4535542 99.87126601 67.18716469 99.87166201 57.92073774 99.86410627 C51.72662115 99.85961333 45.5325353 99.86242739 39.33842325 99.8711158 C35.81233612 99.87586096 32.28632521 99.87752599 28.76024055 99.87030384 C-4.49866103 99.41673451 -4.49866103 99.41673451 -32.27699852 116.13142776 Z " transform="translate(245.27699851989746,199.86857223510742)"/>
<path d="M0 0 C41.19417909 -0.1209091 41.19417909 -0.1209091 58.53320312 -0.14648438 C70.47798553 -0.16424519 82.42270419 -0.18505879 94.36743164 -0.22631836 C103.06895231 -0.25636071 111.77042097 -0.27560798 120.47199208 -0.28226548 C125.07301692 -0.28615278 129.67389306 -0.29519194 134.27486992 -0.31719017 C138.61934391 -0.33779063 142.96361016 -0.34378706 147.30812836 -0.33932304 C148.88936816 -0.34013785 150.47061606 -0.34596155 152.05181313 -0.35761642 C192.14884175 -0.63827821 228.59993232 16.21112459 257 44 C257.66128906 44.61101563 258.32257812 45.22203125 259.00390625 45.8515625 C275.73349992 61.6107621 287.64782508 84.24421964 294.3125 106 C294.54283936 106.74531982 294.77317871 107.49063965 295.01049805 108.25854492 C299.52333932 123.88705246 300.43673125 139.03077629 300.38095093 155.20263672 C300.38441393 157.40783863 300.38918278 159.6130388 300.39513266 161.8182354 C300.40758403 167.83549421 300.40149907 173.85260914 300.39217401 179.86986828 C300.38606101 185.7062134 300.39409344 191.54252873 300.4016161 197.37886971 C300.41736258 210.0423044 300.41606446 222.7056935 300.40737936 235.36913246 C300.39981647 246.45147647 300.39787014 257.53380383 300.4014473 268.6161499 C300.40179103 269.72116013 300.40179103 269.72116013 300.40214171 270.8484938 C300.4030758 273.83930023 300.40403101 276.83010666 300.405021 279.82091307 C300.41418679 307.84584156 300.40589542 335.87074112 300.38973031 363.89566514 C300.37549474 388.7644433 300.37676867 413.63317537 300.39111328 438.50195312 C300.40719613 466.47740701 300.41353661 494.45283536 300.40427649 522.42829323 C300.40331442 525.41347885 300.40237589 528.39866447 300.4014473 531.3838501 C300.40109145 532.48629859 300.40109145 532.48629859 300.40072841 533.61101876 C300.39732381 544.68321144 300.4012922 555.75538558 300.40888596 566.82757568 C300.41748232 579.4240266 300.41527972 592.02042503 300.39904372 604.61686945 C300.39117924 611.03922007 300.38803834 617.46147735 300.39799118 623.88382721 C300.40697629 629.7709157 300.40194255 635.65782493 300.38605852 641.54489732 C300.38272684 643.66647931 300.38436812 645.78807667 300.39168589 647.90964866 C300.44189828 663.68613745 299.06483861 678.58391445 294.4375 693.75 C294.18774414 694.56944092 293.93798828 695.38888184 293.68066406 696.2331543 C281.16418296 735.29716589 253.02319409 766.3180429 216.97265625 785.12890625 C209.53095692 788.8788113 201.96732197 791.87178723 194 794.3125 C193.25468018 794.54283936 192.50936035 794.77317871 191.74145508 795.01049805 C177.85569864 799.0201077 164.21151054 800.44696033 149.83178711 800.34057617 C148.16767428 800.33965408 146.50356028 800.34006288 144.83944798 800.34167194 C140.43970882 800.3423408 136.04022151 800.32513374 131.64054108 800.30384064 C127.49053782 800.28657506 123.34059146 800.28594158 119.19055176 800.28381348 C107.10616866 800.26815995 95.02183102 800.22627619 82.9375 800.1875 C55.898125 800.125625 28.85875 800.06375 1 800 C1 866 1 932 1 1000 C-3.47459085 998.21016366 -5.93894287 996.68717481 -9.625 993.75 C-15.00643059 989.51525215 -20.47255147 985.4171391 -26 981.375 C-32.89132794 976.32404078 -39.71551313 971.19351218 -46.5 966 C-53.1194343 960.93343739 -59.77503047 955.92564658 -66.5 951 C-74.12740017 945.4133758 -81.65644565 939.70723662 -89.1640625 933.9609375 C-94.89902727 929.57935674 -100.67759563 925.26457042 -106.5 921 C-114.12740017 915.4133758 -121.65644565 909.70723662 -129.1640625 903.9609375 C-134.89902727 899.57935674 -140.67759563 895.26457042 -146.5 891 C-154.12740017 885.4133758 -161.65644565 879.70723662 -169.1640625 873.9609375 C-174.89902727 869.57935674 -180.67759563 865.26457042 -186.5 861 C-194.12740017 855.4133758 -201.65644565 849.70723662 -209.1640625 843.9609375 C-215.65960983 838.9982627 -222.22045979 834.1328562 -228.81616211 829.30444336 C-235.82368911 824.16139162 -242.73478194 818.89583398 -249.62109375 813.59179688 C-250.43835938 812.96466797 -251.255625 812.33753906 -252.09765625 811.69140625 C-252.80414307 811.14685791 -253.51062988 810.60230957 -254.23852539 810.04125977 C-255.60545532 809.03083618 -255.60545532 809.03083618 -257 808 C-257.66598337 807.43879886 -258.33196675 806.87759773 -259.01813143 806.29939049 C-265.84144358 800.91398633 -270.9346443 800.00133209 -279.48835754 800.14717102 C-281.32267248 800.13630763 -281.32267248 800.13630763 -283.19404429 800.12522477 C-286.56382523 800.11215952 -289.93077566 800.13017434 -293.30025613 800.16163385 C-296.94403264 800.18789184 -300.58767956 800.17339269 -304.23150635 800.16381836 C-310.54098164 800.15258789 -316.8499974 800.16639045 -323.15940285 800.19695473 C-332.30441657 800.24085992 -341.44906218 800.24205279 -350.59415825 800.23234489 C-365.46347661 800.21733956 -380.33262131 800.23054795 -395.2019043 800.2644043 C-396.09091581 800.26642143 -396.97992732 800.26843857 -397.89587858 800.27051684 C-399.69483978 800.2746087 -401.49380098 800.27870259 -403.29276217 800.28279851 C-404.18441848 800.28482534 -405.07607478 800.28685218 -405.99475098 800.28894043 C-407.33316841 800.29199064 -407.33316841 800.29199064 -408.69862457 800.29510247 C-418.58707987 800.31720242 -428.47554183 800.3321166 -438.36401367 800.34448242 C-439.69089112 800.34615294 -439.69089112 800.34615294 -441.04457418 800.34785721 C-455.84703067 800.36587433 -470.64946082 800.36771899 -485.45192546 800.36069459 C-494.56106676 800.35733912 -503.66993455 800.36970144 -512.77901682 800.40309598 C-519.03559544 800.42530262 -525.29209296 800.433524 -531.5487102 800.43124334 C-535.14636285 800.43049414 -538.74368807 800.43611969 -542.34126854 800.45998955 C-584.60687373 800.72831674 -621.679132 789.10354636 -653 760 C-653.49870605 759.53980469 -653.99741211 759.07960938 -654.51123047 758.60546875 C-662.74881975 750.92406202 -669.75987945 742.36018082 -676 733 C-675.8168925 730.30881467 -675.287228 729.27503059 -673.33276367 727.40356445 C-672.61838135 726.895271 -671.90399902 726.38697754 -671.16796875 725.86328125 C-670.37583984 725.2909375 -669.58371094 724.71859375 -668.76757812 724.12890625 C-667.91615234 723.52949219 -667.06472656 722.93007812 -666.1875 722.3125 C-664.4307186 721.04855365 -662.67420738 719.78423167 -660.91796875 718.51953125 C-660.06509277 717.91061035 -659.2122168 717.30168945 -658.33349609 716.67431641 C-655.52236502 714.65729016 -652.75793862 712.589109 -650 710.5 C-645.84390137 707.36995623 -641.66127906 704.27872022 -637.46630859 701.20117188 C-628.6602552 694.74017962 -619.93690684 688.18271555 -611.29321289 681.50561523 C-606.001116 677.43984355 -600.60387039 673.62454489 -595 670 C-594.443125 670.85722656 -593.88625 671.71445313 -593.3125 672.59765625 C-585.08195297 685.03440197 -575.71187565 694.39530131 -560.55363464 697.66072083 C-548.01283526 700.04050618 -535.10340659 699.32115163 -522.39703333 699.1981951 C-518.52440785 699.16431751 -514.65170545 699.14873889 -510.77897644 699.13146973 C-504.94603526 699.10392933 -499.11317143 699.07080232 -493.28030094 699.03099809 C-481.8108507 698.9528948 -470.34154903 698.91384 -458.87187195 698.8886261 C-457.05964682 698.88445228 -455.24742174 698.88025926 -453.4351967 698.87604731 C-450.68974904 698.86970743 -447.94430131 698.8634012 -445.19885335 698.85719451 C-434.87515102 698.83375595 -424.55146282 698.80660499 -414.2277832 698.7746582 C-412.81412293 698.77030392 -412.81412293 698.77030392 -411.37190386 698.76586167 C-396.1063865 698.71732124 -380.84148247 698.62099774 -365.57631002 698.5097672 C-349.8560372 698.39662285 -334.13635957 698.34518648 -318.41567868 698.34756213 C-308.74465586 698.34690996 -299.07641909 698.29781397 -289.40604886 698.18449245 C-282.76930672 698.11113372 -276.13405012 698.09735971 -269.49698458 698.12868734 C-265.6788809 698.1449355 -261.86550448 698.13638595 -258.04811478 698.05571175 C-238.86608153 697.67174586 -226.50455799 700.36166088 -212.22672403 713.96577132 C-208.56437571 717.31151776 -204.53783974 720.13007077 -200.5 723 C-192.86736465 728.57923797 -185.34336195 734.29291064 -177.8359375 740.0390625 C-172.10097273 744.42064326 -166.32240437 748.73542958 -160.5 753 C-153.77502635 757.9256496 -147.11957384 762.93361547 -140.5 768 C-127.15267766 778.21214461 -113.59155977 788.11522926 -100 798 C-100 765.66 -100 733.32 -100 700 C-88.69681519 699.970271 -88.69681519 699.970271 -77.1652832 699.93994141 C-53.02219309 699.87505866 -28.87914199 699.80052111 -4.73609944 699.71994839 C-0.9825138 699.70743034 2.77107211 699.69499744 6.5246582 699.68261719 C7.27189248 699.68015119 8.01912675 699.6776852 8.78900448 699.67514448 C20.86938127 699.63548008 32.94976734 699.60270486 45.03017106 699.57250018 C57.43666775 699.5413259 69.84312525 699.5026912 82.24957782 699.45720994 C89.89772964 699.42940507 97.54585297 699.40733759 105.19404159 699.39273749 C111.07034443 699.38089465 116.94657981 699.35864448 122.82283783 699.33261681 C125.22491491 699.32358082 127.62700723 699.31786014 130.02910042 699.31578636 C150.70913055 699.29474356 168.5478247 699.16859261 185 685 C199.64486378 669.61362413 199.15072052 649.71326192 199.13371277 629.909729 C199.13558224 627.84867554 199.13788349 625.78762244 199.14057809 623.72656989 C199.14668558 618.07540103 199.14656373 612.42424699 199.14538372 606.77307558 C199.14517945 600.67340143 199.15070097 594.573732 199.15544128 588.47406006 C199.16374251 576.52856748 199.16650885 564.58307968 199.16705366 552.63758495 C199.16751365 542.92684375 199.16957431 533.21610415 199.17275429 523.50536346 C199.17365186 520.70758303 199.17454168 517.9098026 199.17542917 515.11202216 C199.17565021 514.41643703 199.17587126 513.72085189 199.17609901 513.00418842 C199.18225097 493.44557325 199.1861998 473.88695862 199.18575573 454.32834244 C199.18574015 453.59132553 199.18572457 452.85430861 199.18570852 452.09495786 C199.18562542 448.35966296 199.18552638 444.62436806 199.18542381 440.88907316 C199.18540387 440.14726349 199.18538392 439.40545382 199.18536337 438.64116507 C199.18532294 437.14104606 199.18528114 435.64092706 199.18523798 434.14080806 C199.18462529 410.80382675 199.19213157 387.46685997 199.20581055 364.12988281 C199.22118155 337.89559134 199.22977617 311.66130942 199.22884732 285.42701316 C199.2287727 282.6279753 199.22872399 279.82893745 199.22869301 277.0298996 C199.22868135 276.34073328 199.2286697 275.65156697 199.22865769 274.94151683 C199.22862696 263.86679394 199.23500386 252.7920837 199.24362527 241.71736458 C199.25211501 230.58123618 199.25291024 219.44512254 199.24651595 208.3089917 C199.24325207 202.27997782 199.2431894 196.25100965 199.2518692 190.22200012 C199.25974075 184.69750937 199.25829601 179.17310052 199.24958507 173.64861175 C199.24805154 171.65540387 199.24986066 169.66218986 199.25544515 167.66898921 C199.30663939 148.09253845 198.70832661 130.36159213 185 115 C170.31083894 101.8917352 153.62221833 100.7090387 134.64111328 100.68115234 C133.16122914 100.67182591 131.68135013 100.66165334 130.20147705 100.65071106 C126.2313691 100.62370248 122.26129602 100.6083495 118.29112101 100.59528303 C114.1244503 100.57952311 109.95784953 100.5527748 105.79122925 100.5272522 C97.92229414 100.48068993 90.05334554 100.44383759 82.18434417 100.41057932 C71.53601462 100.36500347 60.88777221 100.30421391 50.2395153 100.24433136 C33.49305416 100.15055084 16.7465668 100.07691196 0 100 C0 67 0 34 0 0 Z " fill="#000000" transform="translate(1200,500)"/>
</svg>
